<svg xmlns="http://www.w3.org/2000/svg" xmlns:xlink="http://www.w3.org/1999/xlink" width="500" zoomAndPan="magnify" viewBox="0 0 375 374.999991" height="500" preserveAspectRatio="xMidYMid meet" version="1.0"><defs><clipPath id="b18af49eb7"><path d="M 3.710938 3.710938 L 371.210938 3.710938 L 371.210938 371.210938 L 3.710938 371.210938 Z M 3.710938 3.710938 " clip-rule="nonzero"/></clipPath></defs><g clip-path="url(#b18af49eb7)"><path fill="#1D5B79" d="M 291.949219 3.710938 L 82.972656 3.710938 C 39.269531 3.710938 3.710938 39.269531 3.710938 82.976562 L 3.710938 291.953125 C 3.710938 335.65625 39.269531 371.210938 82.972656 371.210938 L 291.949219 371.210938 C 335.65625 371.210938 371.210938 335.65625 371.210938 291.953125 L 371.210938 82.976562 C 371.210938 39.269531 335.65625 3.710938 291.949219 3.710938 Z M 346.710938 291.953125 C 346.710938 322.144531 322.148438 346.710938 291.949219 346.710938 L 82.972656 346.710938 C 52.777344 346.710938 28.210938 322.148438 28.210938 291.953125 L 28.210938 82.976562 C 28.210938 52.78125 52.777344 28.210938 82.972656 28.210938 L 291.949219 28.210938 C 322.148438 28.210938 346.710938 52.78125 346.710938 82.976562 Z M 346.710938 291.953125 " fill-opacity="1" fill-rule="nonzero"/></g><path fill="#1D5B79" d="M 256.488281 131.316406 L 170.183594 217.617188 L 118.4375 165.871094 C 113.648438 161.089844 105.890625 161.089844 101.113281 165.871094 C 96.328125 170.65625 96.328125 178.414062 101.113281 183.195312 L 161.523438 243.605469 C 163.820312 245.902344 166.9375 247.191406 170.183594 247.191406 C 173.429688 247.191406 176.546875 245.902344 178.84375 243.605469 L 273.808594 148.644531 C 278.597656 143.859375 278.597656 136.105469 273.808594 131.320312 C 269.027344 126.535156 261.269531 126.535156 256.488281 131.316406 Z M 256.488281 131.316406 " fill-opacity="1" fill-rule="nonzero"/></svg>