<svg xmlns="http://www.w3.org/2000/svg" xmlns:xlink="http://www.w3.org/1999/xlink" width="500" zoomAndPan="magnify" viewBox="0 0 375 374.999991" height="500" preserveAspectRatio="xMidYMid meet" version="1.0"><defs><clipPath id="96b6ff1483"><path d="M 0 54.113281 L 160.5 54.113281 L 160.5 320.671875 L 0 320.671875 Z M 0 54.113281 " clip-rule="nonzero"/></clipPath><clipPath id="de8e33a1a5"><path d="M 214.5 54.113281 L 375 54.113281 L 375 320.671875 L 214.5 320.671875 Z M 214.5 54.113281 " clip-rule="nonzero"/></clipPath></defs><g clip-path="url(#96b6ff1483)"><path fill="#ffffff" d="M 80.804688 161.867188 C 71.398438 161.867188 62.410156 163.589844 54.027344 166.605469 C 54.761719 158.109375 56.304688 149.546875 58.71875 141.070312 C 63.621094 123.632812 72.511719 106.867188 84.457031 91.882812 C 96.4375 76.925781 111.730469 63.886719 129.53125 54.109375 C 109.734375 58.496094 90.285156 66.980469 72.773438 79.230469 C 55.308594 91.488281 39.546875 107.378906 27.558594 126.382812 C 15.515625 145.324219 6.882812 167.148438 2.777344 190.382812 C -0.4375 208.847656 -0.925781 228.085938 1.652344 247.320312 C 2.035156 252.355469 2.898438 257.242188 4.179688 261.972656 C 4.199219 262.050781 4.210938 262.128906 4.226562 262.207031 L 4.238281 262.199219 C 13.464844 295.839844 44.246094 320.671875 80.804688 320.671875 C 124.617188 320.671875 160.261719 285.050781 160.261719 241.265625 C 160.261719 197.488281 124.617188 161.867188 80.804688 161.867188 " fill-opacity="1" fill-rule="nonzero"/></g><g clip-path="url(#de8e33a1a5)"><path fill="#ffffff" d="M 295.539062 161.867188 C 286.136719 161.867188 277.144531 163.589844 268.761719 166.605469 C 269.5 158.109375 271.046875 149.546875 273.460938 141.070312 C 278.359375 123.632812 287.246094 106.867188 299.195312 91.882812 C 311.171875 76.925781 326.464844 63.886719 344.265625 54.109375 C 324.472656 58.496094 305.023438 66.980469 287.511719 79.230469 C 270.046875 91.488281 254.285156 107.378906 242.296875 126.382812 C 230.253906 145.324219 221.617188 167.148438 217.515625 190.382812 C 214.296875 208.851562 213.8125 228.09375 216.390625 247.328125 C 216.773438 252.355469 217.636719 257.238281 218.914062 261.960938 C 218.933594 262.042969 218.945312 262.125 218.960938 262.207031 L 218.980469 262.199219 C 228.203125 295.839844 258.988281 320.671875 295.539062 320.671875 C 339.355469 320.671875 375 285.050781 375 241.265625 C 375 197.488281 339.355469 161.867188 295.539062 161.867188 " fill-opacity="1" fill-rule="nonzero"/></g></svg>